<?xml version="1.0" encoding="UTF-8" standalone="no"?>
<!--
  -
  - libcontemporary - Common libraries
  - Copyright (C) 2022 Victor Tran
  -
  - This program is free software: you can redistribute it and/or modify
  - it under the terms of the GNU General Public License as published by
  - the Free Software Foundation, either version 3 of the License, or
  - (at your option) any later version.
  -
  - This program is distributed in the hope that it will be useful,
  - but WITHOUT ANY WARRANTY; without even the implied warranty of
  - MERCHANTABILITY or FITNESS FOR A PARTICULAR PURPOSE.  See the
  - GNU General Public License for more details.
  -
  - You should have received a copy of the GNU General Public License
  - along with this program.  If not, see <http://www.gnu.org/licenses/>.
  -
  -->

<svg
   inkscape:export-ydpi="9600"
   inkscape:export-xdpi="9600"
   inkscape:export-filename="/home/victor/Documents/Apps/the-libs/readme/splash.png"
   sodipodi:docname="splash.svg"
   inkscape:version="1.2.2 (b0a8486541, 2022-12-01)"
   id="svg843"
   version="1.1"
   viewBox="0 0 5.2916665 2.6458334"
   height="10"
   width="20"
   xmlns:inkscape="http://www.inkscape.org/namespaces/inkscape"
   xmlns:sodipodi="http://sodipodi.sourceforge.net/DTD/sodipodi-0.dtd"
   xmlns:xlink="http://www.w3.org/1999/xlink"
   xmlns="http://www.w3.org/2000/svg"
   xmlns:svg="http://www.w3.org/2000/svg"
   xmlns:rdf="http://www.w3.org/1999/02/22-rdf-syntax-ns#"
   xmlns:cc="http://creativecommons.org/ns#"
   xmlns:dc="http://purl.org/dc/elements/1.1/">
  <defs
     id="defs837">
    <linearGradient
       gradientUnits="userSpaceOnUse"
       y2="294.35416"
       x2="5.2916665"
       y1="296.99997"
       x1="0"
       id="linearGradient2317"
       xlink:href="#linearGradient9085"
       inkscape:collect="always" />
    <linearGradient
       inkscape:collect="always"
       id="linearGradient9085">
      <stop
         style="stop-color:#6464ff;stop-opacity:1"
         offset="0"
         id="stop9081" />
      <stop
         style="stop-color:#c8c8ff;stop-opacity:1"
         offset="1"
         id="stop9083" />
    </linearGradient>
    <linearGradient
       gradientUnits="userSpaceOnUse"
       y2="294.35419"
       x2="5.2916665"
       y1="296.99997"
       x1="0"
       id="linearGradient2317-3-2"
       xlink:href="#linearGradient9085"
       inkscape:collect="always"
       gradientTransform="matrix(0.10000001,0,0,0.80001203,0.26458333,58.867237)" />
    <linearGradient
       gradientUnits="userSpaceOnUse"
       y2="294.35416"
       x2="0.52916664"
       y1="296.47083"
       x1="0.52916664"
       id="linearGradient2515"
       xlink:href="#linearGradient9209"
       inkscape:collect="always" />
    <linearGradient
       inkscape:collect="always"
       id="linearGradient9209">
      <stop
         style="stop-color:#0064d9;stop-opacity:1"
         offset="0"
         id="stop9205" />
      <stop
         style="stop-color:#22c8ff;stop-opacity:1"
         offset="1"
         id="stop9207" />
    </linearGradient>
    <linearGradient
       gradientUnits="userSpaceOnUse"
       y2="294.35416"
       x2="0.52916664"
       y1="296.47083"
       x1="0.52916664"
       id="linearGradient2515-7"
       xlink:href="#linearGradient943"
       inkscape:collect="always"
       gradientTransform="translate(0)" />
    <linearGradient
       gradientTransform="matrix(0.02127609,0,0,0.02127609,78.132678,284.60279)"
       gradientUnits="userSpaceOnUse"
       y2="-3.5959179"
       x2="27.313709"
       y1="35.595917"
       x1="4.6862917"
       id="linearGradient822-63-3-2"
       xlink:href="#linearGradient943"
       inkscape:collect="always" />
    <linearGradient
       inkscape:collect="always"
       id="linearGradient943">
      <stop
         style="stop-color:#646464;stop-opacity:1"
         offset="0"
         id="stop939" />
      <stop
         style="stop-color:#c8c8c8;stop-opacity:1"
         offset="1"
         id="stop941" />
    </linearGradient>
  </defs>
  <sodipodi:namedview
     inkscape:document-rotation="0"
     inkscape:window-maximized="1"
     inkscape:window-y="32"
     inkscape:window-x="0"
     inkscape:window-height="2091"
     inkscape:window-width="3840"
     showguides="true"
     units="px"
     showgrid="true"
     inkscape:current-layer="layer1"
     inkscape:document-units="mm"
     inkscape:cy="3.734375"
     inkscape:cx="7.2851562"
     inkscape:zoom="128"
     inkscape:pageshadow="2"
     inkscape:pageopacity="0.0"
     borderopacity="1.0"
     bordercolor="#666666"
     pagecolor="#ffffff"
     id="base"
     inkscape:showpageshadow="0"
     inkscape:pagecheckerboard="0"
     inkscape:deskcolor="#d1d1d1">
    <inkscape:grid
       enabled="false"
       id="grid1391"
       type="xygrid" />
    <inkscape:grid
       enabled="false"
       empspacing="1"
       dotted="true"
       originx="0.13229167"
       originy="0.13229167"
       id="grid1393"
       type="xygrid" />
  </sodipodi:namedview>
  <metadata
     id="metadata840">
    <rdf:RDF>
      <cc:Work
         rdf:about="">
        <dc:format>image/svg+xml</dc:format>
        <dc:type
           rdf:resource="http://purl.org/dc/dcmitype/StillImage" />
      </cc:Work>
    </rdf:RDF>
  </metadata>
  <g
     transform="translate(0,-294.35415)"
     id="layer1"
     inkscape:groupmode="layer"
     inkscape:label="Layer 1">
    <rect
       y="294.35416"
       x="0"
       height="2.6458333"
       width="5.2916665"
       id="rect2664-1"
       style="opacity:1;fill:#ffffff;fill-opacity:1;stroke:none;stroke-width:0.26499999;stroke-linecap:round;stroke-linejoin:round;stroke-miterlimit:4;stroke-dasharray:none;stroke-dashoffset:0;stroke-opacity:1;paint-order:normal" />
    <g
       id="g2199"
       transform="translate(-0.8098038)">
      <circle
         inkscape:export-ydpi="2165.5593"
         inkscape:export-xdpi="2165.5593"
         inkscape:export-filename="/home/victor/newcontemporary.png"
         cy="284.94318"
         cx="78.473091"
         id="path814-5-6"
         style="fill:url(#linearGradient822-63-3-2);fill-opacity:1;stroke:none;stroke-width:0.264583;stroke-linecap:round;stroke-linejoin:round;stroke-miterlimit:4;stroke-dasharray:none;stroke-dashoffset:0;stroke-opacity:1;paint-order:normal"
         r="0.34041736"
         transform="rotate(15)" />
      <path
         inkscape:export-ydpi="2165.5593"
         inkscape:export-xdpi="2165.5593"
         inkscape:export-filename="/home/victor/newcontemporary.png"
         inkscape:connector-curvature="0"
         id="rect824-9-2-7"
         d="m 2.0724764,295.46214 c -0.045541,-0.0122 -0.092029,0.0146 -0.1042295,0.0602 l -0.085193,0.31795 a 0.34041736,0.34041736 0 0 0 0.07929,0.0329 0.34041736,0.34041736 0 0 0 0.4169252,-0.24071 0.34041736,0.34041736 0 0 0 0.011309,-0.0851 z"
         style="fill:#000000;fill-opacity:1;stroke:none;stroke-width:0.36;stroke-linecap:round;stroke-linejoin:round;stroke-miterlimit:4;stroke-dasharray:none;stroke-dashoffset:0;stroke-opacity:1;paint-order:normal" />
      <path
         style="color:#000000;font-style:normal;font-variant:normal;font-weight:normal;font-stretch:normal;font-size:medium;line-height:normal;font-family:sans-serif;font-variant-ligatures:normal;font-variant-position:normal;font-variant-caps:normal;font-variant-numeric:normal;font-variant-alternates:normal;font-variant-east-asian:normal;font-feature-settings:normal;font-variation-settings:normal;text-indent:0;text-align:start;text-decoration:none;text-decoration-line:none;text-decoration-style:solid;text-decoration-color:#000000;letter-spacing:normal;word-spacing:normal;text-transform:none;writing-mode:lr-tb;direction:ltr;text-orientation:mixed;dominant-baseline:auto;baseline-shift:baseline;text-anchor:start;white-space:normal;shape-padding:0;shape-margin:0;inline-size:0;clip-rule:nonzero;display:inline;overflow:visible;visibility:visible;isolation:auto;mix-blend-mode:normal;color-interpolation:sRGB;color-interpolation-filters:linearRGB;solid-color:#000000;solid-opacity:1;vector-effect:none;fill:#ffffff;fill-opacity:1;fill-rule:nonzero;stroke:none;stroke-width:0.999999;stroke-linecap:round;stroke-linejoin:round;stroke-miterlimit:4;stroke-dasharray:0.396875, 0.79375;stroke-dashoffset:2.06375;stroke-opacity:1;paint-order:normal;color-rendering:auto;image-rendering:auto;shape-rendering:auto;text-rendering:auto;enable-background:accumulate;stop-color:#000000"
         d="m 2.1099012,295.49997 a 0.01595706,0.01595706 0 0 0 -0.016648,0.0118 0.01595706,0.01595706 0 0 0 0.011308,0.0196 l 0.03094,0.008 a 0.01595706,0.01595706 0 0 0 0.019475,-0.0113 0.01595706,0.01595706 0 0 0 -0.011308,-0.0195 l -0.030783,-0.008 a 0.01595706,0.01595706 0 0 0 -0.00298,-4.8e-4 z m -0.062666,0.003 a 0.01595706,0.01595706 0 0 0 -0.00675,10e-4 l -0.00126,3.3e-4 a 0.01595866,0.01595866 0 0 0 -0.00141,8e-4 l -0.00722,0.004 a 0.01595866,0.01595866 0 0 0 -0.00126,8e-4 l -0.00691,0.004 a 0.01595866,0.01595866 0 0 0 -0.00126,9.4e-4 l -0.00644,0.005 a 0.01595866,0.01595866 0 0 0 -0.0011,0.001 l -0.0044,0.004 a 0.01595706,0.01595706 0 0 0 -4.712e-4,0.0225 0.01595706,0.01595706 0 0 0 0.022459,4.8e-4 l 0.00393,-0.004 0.00518,-0.004 0.00565,-0.004 0.00581,-0.003 4.712e-4,-1.6e-4 a 0.01595706,0.01595706 0 0 0 0.00895,-0.0207 0.01595706,0.01595706 0 0 0 -0.013978,-0.0101 z m 0.1521889,0.0223 a 0.01595706,0.01595706 0 0 0 -0.013664,0.0118 0.01595706,0.01595706 0 0 0 0.011308,0.0195 l 0.030783,0.008 a 0.01595706,0.01595706 0 0 0 0.019632,-0.0113 0.01595706,0.01595706 0 0 0 -0.011308,-0.0195 l -0.030783,-0.008 a 0.01595706,0.01595706 0 0 0 -0.00597,-4.9e-4 z m 0.09235,0.0248 a 0.01595706,0.01595706 0 0 0 -0.013507,0.0118 0.01595706,0.01595706 0 0 0 0.011308,0.0195 l 0.030783,0.008 a 0.01595706,0.01595706 0 0 0 0.019632,-0.0113 0.01595706,0.01595706 0 0 0 -0.011308,-0.0196 l -0.03094,-0.008 a 0.01595706,0.01595706 0 0 0 -0.00597,-4.8e-4 z m -0.2973103,0.0276 a 0.01595706,0.01595706 0 0 0 -0.016648,0.0118 l -0.00817,0.0309 a 0.01595706,0.01595706 0 0 0 0.011308,0.0195 0.01595706,0.01595706 0 0 0 0.019475,-0.0113 l 0.00832,-0.0308 a 0.01595706,0.01595706 0 0 0 -0.011308,-0.0195 0.01595706,0.01595706 0 0 0 -0.00298,-6.5e-4 z m -0.024815,0.0925 a 0.01595706,0.01595706 0 0 0 -0.016491,0.0118 l -0.00832,0.0309 a 0.01595706,0.01595706 0 0 0 0.011308,0.0195 0.01595706,0.01595706 0 0 0 0.019475,-0.0113 l 0.00832,-0.0308 a 0.01595706,0.01595706 0 0 0 -0.011308,-0.0196 0.01595706,0.01595706 0 0 0 -0.00298,-4.8e-4 z m -0.027799,0.0925 a 0.01595706,0.01595706 0 0 0 -0.013507,0.0118 l -0.00832,0.0308 a 0.01595706,0.01595706 0 0 0 0.011308,0.0196 0.01595706,0.01595706 0 0 0 0.019632,-0.0113 l 0.00817,-0.0308 a 0.01595706,0.01595706 0 0 0 -0.011308,-0.0196 0.01595706,0.01595706 0 0 0 -0.00597,-4.8e-4 z"
         id="rect824-9-2-6" />
      <path
         style="color:#000000;font-style:normal;font-variant:normal;font-weight:normal;font-stretch:normal;font-size:medium;line-height:normal;font-family:sans-serif;font-variant-ligatures:normal;font-variant-position:normal;font-variant-caps:normal;font-variant-numeric:normal;font-variant-alternates:normal;font-variant-east-asian:normal;font-feature-settings:normal;font-variation-settings:normal;text-indent:0;text-align:start;text-decoration:none;text-decoration-line:none;text-decoration-style:solid;text-decoration-color:#000000;letter-spacing:normal;word-spacing:normal;text-transform:none;writing-mode:lr-tb;direction:ltr;text-orientation:mixed;dominant-baseline:auto;baseline-shift:baseline;text-anchor:start;white-space:normal;shape-padding:0;shape-margin:0;inline-size:0;clip-rule:nonzero;display:inline;overflow:visible;visibility:visible;isolation:auto;mix-blend-mode:normal;color-interpolation:sRGB;color-interpolation-filters:linearRGB;solid-color:#000000;solid-opacity:1;vector-effect:none;fill:#000000;fill-opacity:1;fill-rule:nonzero;stroke:none;stroke-width:0.999999;stroke-linecap:round;stroke-linejoin:round;stroke-miterlimit:4;stroke-dasharray:0.397, 0.794;stroke-dashoffset:1.985;stroke-opacity:1;paint-order:normal;color-rendering:auto;image-rendering:auto;shape-rendering:auto;text-rendering:auto;enable-background:accumulate;stop-color:#000000"
         d="m 2.0087561,295.39176 a 0.01596209,0.01596209 0 0 0 -0.013978,0.0177 0.01596209,0.01596209 0 0 0 0.017748,0.014 c 0.00842,-10e-4 0.017188,-3.2e-4 0.0256,0.002 a 0.01596209,0.01596209 0 0 0 0.019632,-0.0113 0.01596209,0.01596209 0 0 0 -0.011308,-0.0195 c -0.012139,-0.003 -0.024977,-0.004 -0.037694,-0.003 z m 0.093292,0.0189 a 0.01596209,0.01596209 0 0 0 -0.013507,0.0118 0.01596209,0.01596209 0 0 0 0.011308,0.0196 l 0.030783,0.008 a 0.01596209,0.01596209 0 0 0 0.019632,-0.0113 0.01596209,0.01596209 0 0 0 -0.011308,-0.0195 l -0.03094,-0.008 a 0.01596209,0.01596209 0 0 0 -0.00597,-4.9e-4 z m -0.1471631,0.0104 a 0.01596209,0.01596209 0 0 0 -0.011465,0.006 c -0.00822,0.01 -0.014633,0.0207 -0.01869,0.0328 a 0.01596209,0.01596209 0 0 0 0.010052,0.0203 0.01596209,0.01596209 0 0 0 0.02026,-0.0101 c 0.00272,-0.008 0.00713,-0.0157 0.012722,-0.0223 a 0.01596209,0.01596209 0 0 0 -0.00188,-0.0226 0.01596209,0.01596209 0 0 0 -0.010994,-0.004 z m 0.23967,0.0145 a 0.01596209,0.01596209 0 0 0 -0.013507,0.0118 0.01596209,0.01596209 0 0 0 0.011308,0.0195 l 0.030783,0.008 a 0.01596209,0.01596209 0 0 0 0.019632,-0.0113 0.01596209,0.01596209 0 0 0 -0.011308,-0.0195 l -0.03094,-0.008 a 0.01596209,0.01596209 0 0 0 -0.00597,-4.8e-4 z m 0.092507,0.0248 a 0.01596209,0.01596209 0 0 0 -0.013507,0.0118 0.01596209,0.01596209 0 0 0 0.011308,0.0195 l 0.030783,0.008 a 0.01596209,0.01596209 0 0 0 0.019632,-0.0113 0.01596209,0.01596209 0 0 0 -0.011308,-0.0196 l -0.030783,-0.008 a 0.01596209,0.01596209 0 0 0 -0.00613,-4.9e-4 z m -0.3628033,0.0499 a 0.01596209,0.01596209 0 0 0 -0.016491,0.0118 l -0.00832,0.0309 a 0.01596209,0.01596209 0 0 0 0.011308,0.0195 0.01596209,0.01596209 0 0 0 0.019632,-0.0113 l 0.00817,-0.0308 a 0.01596209,0.01596209 0 0 0 -0.011308,-0.0196 0.01596209,0.01596209 0 0 0 -0.00298,-4.8e-4 z m -0.024658,0.0925 a 0.01596209,0.01596209 0 0 0 -0.016648,0.0118 l -0.00832,0.0309 a 0.01596209,0.01596209 0 0 0 0.011308,0.0195 0.01596209,0.01596209 0 0 0 0.019632,-0.0113 l 0.00817,-0.0308 a 0.01596209,0.01596209 0 0 0 -0.011151,-0.0196 0.01596209,0.01596209 0 0 0 -0.00298,-4.8e-4 z m -0.024815,0.0925 a 0.01596209,0.01596209 0 0 0 -0.016648,0.0118 l -0.00817,0.0309 a 0.01596209,0.01596209 0 0 0 0.011151,0.0195 0.01596209,0.01596209 0 0 0 0.019632,-0.0113 l 0.00832,-0.0308 a 0.01596209,0.01596209 0 0 0 -0.011308,-0.0196 0.01596209,0.01596209 0 0 0 -0.00298,-4.8e-4 z"
         id="rect824-9-2-6-3" />
    </g>
    <path
       sodipodi:nodetypes="cccccc"
       inkscape:connector-curvature="0"
       id="path2507-4"
       d="m 0.26458333,294.35415 v 2.11667 l 0.26458334,-0.26459 0.26458333,0.26459 v -2.11667 z"
       style="fill:url(#linearGradient2515-7);fill-opacity:1.0;stroke:none;stroke-width:0.26458332px;stroke-linecap:butt;stroke-linejoin:miter;stroke-opacity:1" />
    <g
       aria-label="libcontemporary"
       id="text2049"
       style="font-size:0.449388px;line-height:1.25;font-family:Contemporary;-inkscape-font-specification:Contemporary;stroke-width:0.264583">
      <path
         d="m 1.7786102,295.68532 q 0,0.005 -0.0036,0.009 -0.0036,0.004 -0.00854,0.004 h -0.016627 q -0.00494,0 -0.00854,-0.004 -0.0036,-0.004 -0.0036,-0.009 v -0.2948 q 0,-0.005 0.0036,-0.009 0.0036,-0.004 0.00854,-0.004 h 0.016627 q 0.00494,0 0.00854,0.004 0.0036,0.004 0.0036,0.009 z"
         id="path13740" />
      <path
         d="m 1.8914062,295.42018 q 0,0.005 -0.0036,0.009 -0.0036,0.004 -0.00854,0.004 h -0.025615 q -0.00494,0 -0.00854,-0.004 -0.0036,-0.004 -0.0036,-0.009 v -0.0256 q 0,-0.005 0.0036,-0.009 0.0036,-0.004 0.00854,-0.004 h 0.025615 q 0.00494,0 0.00854,0.004 0.0036,0.004 0.0036,0.009 z m -0.00449,0.26514 q 0,0.005 -0.0036,0.009 -0.0036,0.004 -0.00854,0.004 h -0.016627 q -0.00494,0 -0.00854,-0.004 -0.0036,-0.004 -0.0036,-0.009 v -0.20942 q 0,-0.005 0.0036,-0.009 0.0036,-0.004 0.00854,-0.004 h 0.016627 q 0.00494,0 0.00854,0.004 0.0036,0.004 0.0036,0.009 z"
         id="path13742" />
      <path
         d="m 2.1668807,295.56578 q 4.494e-4,0.004 4.494e-4,0.0144 0,0.0103 -4.494e-4,0.0148 -0.00135,0.0324 -0.015279,0.0566 -0.013482,0.0243 -0.0364,0.0373 -0.022469,0.013 -0.050331,0.013 -0.046736,0 -0.069655,-0.0306 v 0.0139 q 0,0.005 -0.0036,0.009 -0.0036,0.004 -0.00854,0.004 h -0.016627 q -0.00494,0 -0.00854,-0.004 -0.0036,-0.004 -0.0036,-0.009 v -0.2948 q 0,-0.005 0.0036,-0.009 0.0036,-0.004 0.00854,-0.004 h 0.016627 q 0.00494,0 0.00854,0.004 0.0036,0.004 0.0036,0.009 v 0.0993 q 0.00989,-0.013 0.026963,-0.0216 0.017526,-0.009 0.042692,-0.009 0.028311,0 0.050781,0.013 0.022469,0.013 0.035951,0.0373 0.013931,0.0238 0.015279,0.0562 z m -0.1065049,0.0975 q 0.02921,0 0.046287,-0.0184 0.017077,-0.0189 0.019324,-0.0517 4.494e-4,-0.004 4.494e-4,-0.0126 0,-0.0382 -0.017526,-0.0602 -0.017077,-0.0225 -0.048534,-0.0225 -0.028312,0 -0.045388,0.0175 -0.017077,0.0175 -0.019773,0.049 -4.494e-4,0.004 -4.494e-4,0.0175 0,0.0135 4.494e-4,0.018 0.00225,0.0292 0.019773,0.0463 0.017975,0.0171 0.045388,0.0171 z"
         id="path13744" />
      <path
         d="m 2.3174255,295.6633 q 0.044939,0 0.060667,-0.0351 0.00315,-0.007 0.00629,-0.009 0.00315,-0.003 0.00854,-0.003 h 0.013482 q 0.00494,0 0.00854,0.004 0.0036,0.003 0.0036,0.008 0,0.0153 -0.012133,0.0328 -0.012134,0.0175 -0.035052,0.0297 -0.022919,0.0121 -0.053927,0.0121 -0.031907,0 -0.055275,-0.0135 -0.023368,-0.0135 -0.035951,-0.0369 -0.012583,-0.0238 -0.013931,-0.053 -4.494e-4,-0.005 -4.494e-4,-0.0207 0,-0.0108 4.494e-4,-0.0153 0.00404,-0.0458 0.031008,-0.0746 0.026963,-0.0288 0.074149,-0.0288 0.031008,0 0.053477,0.0121 0.022919,0.0117 0.034603,0.0292 0.012134,0.0171 0.013032,0.0323 4.494e-4,0.005 -0.0036,0.009 -0.0036,0.004 -0.00854,0.004 h -0.013482 q -0.00539,0 -0.00854,-0.003 -0.00315,-0.003 -0.00629,-0.009 -0.015729,-0.035 -0.060667,-0.035 -0.024716,0 -0.043141,0.0166 -0.018425,0.0166 -0.021121,0.0503 -4.493e-4,0.005 -4.493e-4,0.0162 0,0.0103 4.493e-4,0.0153 0.00315,0.0337 0.021121,0.0503 0.018425,0.0166 0.043141,0.0166 z"
         id="path13746" />
      <path
         d="m 2.6746891,295.55949 q 8.988e-4,0.01 8.988e-4,0.0216 0,0.0108 -8.988e-4,0.0207 -0.00404,0.0458 -0.031907,0.0733 -0.027413,0.027 -0.074599,0.027 -0.047186,0 -0.075048,-0.027 -0.027413,-0.0274 -0.031457,-0.0733 -4.494e-4,-0.005 -4.494e-4,-0.0207 0,-0.0166 4.494e-4,-0.0216 0.0036,-0.0458 0.031457,-0.0728 0.027862,-0.0274 0.075048,-0.0274 0.047186,0 0.075048,0.0274 0.027862,0.027 0.031457,0.0728 z m -0.040894,0.002 q -0.0027,-0.0288 -0.019324,-0.0463 -0.016178,-0.0175 -0.046287,-0.0175 -0.030109,0 -0.046736,0.0175 -0.016178,0.0175 -0.018874,0.0463 -4.494e-4,0.005 -4.494e-4,0.0193 0,0.0135 4.494e-4,0.0184 0.0027,0.0288 0.018874,0.0463 0.016627,0.0175 0.046736,0.0175 0.030109,0 0.046287,-0.0175 0.016627,-0.0175 0.019324,-0.0463 8.988e-4,-0.01 8.988e-4,-0.0184 0,-0.009 -8.988e-4,-0.0193 z"
         id="path13748" />
      <path
         d="m 2.9393785,295.68532 q 0,0.005 -0.0036,0.009 -0.0036,0.004 -0.00854,0.004 h -0.016627 q -0.00494,0 -0.00854,-0.004 -0.0036,-0.004 -0.0036,-0.009 v -0.11864 q 0,-0.0337 -0.016627,-0.0512 -0.016627,-0.0175 -0.046287,-0.0175 -0.02921,0 -0.046287,0.0175 -0.016627,0.0175 -0.016627,0.0512 v 0.11864 q 0,0.005 -0.0036,0.009 -0.0036,0.004 -0.00854,0.004 h -0.016627 q -0.00494,0 -0.00854,-0.004 -0.0036,-0.004 -0.0036,-0.009 v -0.20942 q 0,-0.005 0.0036,-0.009 0.0036,-0.004 0.00854,-0.004 h 0.016627 q 0.00494,0 0.00854,0.004 0.0036,0.004 0.0036,0.009 v 0.0139 q 0.00989,-0.013 0.026963,-0.0216 0.017526,-0.009 0.042692,-0.009 0.028312,0 0.050331,0.0121 0.02202,0.0121 0.034153,0.0351 0.012583,0.0225 0.012583,0.0535 z"
         id="path13750" />
      <path
         d="m 3.031054,295.68576 q 0,0.005 0.00404,0.009 0.00449,0.003 0.00944,0.003 h 0.016627 q 0.00494,0 0.00854,-0.004 0.0036,-0.004 0.0036,-0.009 l -0.00135,-0.18291 h 0.047186 q 0.00494,0 0.00854,-0.004 0.0036,-0.004 0.0036,-0.009 v -0.0144 q 0,-0.005 -0.0036,-0.009 -0.0036,-0.004 -0.00854,-0.004 h -0.047186 v -0.0733 q 0,-0.005 -0.0036,-0.009 -0.0036,-0.004 -0.00854,-0.004 h -0.016627 q -0.00494,0 -0.00854,0.004 -0.0036,0.004 -0.0036,0.009 v 0.0733 h -0.043141 q -0.00494,0 -0.00854,0.004 -0.0036,0.004 -0.0036,0.009 v 0.0144 q 0,0.005 0.0036,0.009 0.0036,0.004 0.00854,0.004 h 0.043141 z"
         id="path13752" />
      <path
         d="m 3.2728247,295.45927 q 0.048084,0 0.075946,0.0306 0.027862,0.0306 0.027862,0.0831 v 0.0121 q 0,0.005 -0.0036,0.009 -0.0036,0.004 -0.00854,0.004 H 3.2099103 v 0.003 q 8.988e-4,0.0297 0.017976,0.0467 0.017526,0.0166 0.044939,0.0166 0.022469,0 0.034603,-0.006 0.012583,-0.006 0.022469,-0.0166 0.0036,-0.004 0.00629,-0.005 0.00315,-0.001 0.00809,-0.001 h 0.013482 q 0.00539,0 0.00899,0.004 0.0036,0.004 0.00315,0.009 -0.0018,0.0121 -0.013482,0.0252 -0.011235,0.0126 -0.032805,0.0216 -0.021121,0.009 -0.050781,0.009 -0.028761,0 -0.05123,-0.013 -0.022469,-0.0135 -0.035951,-0.0369 -0.013032,-0.0234 -0.015729,-0.0526 -8.988e-4,-0.0135 -8.988e-4,-0.0207 0,-0.007 8.988e-4,-0.0207 0.0027,-0.0279 0.015729,-0.0503 0.013482,-0.0225 0.035502,-0.0355 0.022469,-0.013 0.05168,-0.013 z m 0.063364,0.10022 v -0.001 q 0,-0.0274 -0.017526,-0.0436 -0.017077,-0.0166 -0.045837,-0.0166 -0.026064,0 -0.04449,0.0166 -0.017975,0.0166 -0.018425,0.0436 v 0.001 z"
         id="path13754" />
      <path
         d="m 3.4719032,295.48983 q 0.010785,-0.0139 0.024267,-0.022 0.013482,-0.009 0.035951,-0.009 0.052578,0 0.0737,0.0391 0.013032,-0.0189 0.02966,-0.0288 0.016627,-0.0103 0.043591,-0.0103 0.04404,0 0.065161,0.0265 0.021571,0.0265 0.021571,0.075 v 0.12449 q 0,0.005 -0.0036,0.009 -0.0036,0.004 -0.00854,0.004 h -0.016627 q -0.00494,0 -0.00854,-0.004 -0.0036,-0.004 -0.0036,-0.009 v -0.11999 q 0,-0.0674 -0.053028,-0.0674 -0.024267,0 -0.038647,0.0162 -0.01438,0.0162 -0.01438,0.0481 v 0.12314 q 0,0.005 -0.0036,0.009 -0.0036,0.004 -0.00854,0.004 h -0.016627 q -0.00494,0 -0.00854,-0.004 -0.0036,-0.004 -0.0036,-0.009 v -0.11999 q 0,-0.0674 -0.053028,-0.0674 -0.024267,0 -0.038647,0.0162 -0.01438,0.0162 -0.01438,0.0481 v 0.12314 q 0,0.005 -0.0036,0.009 -0.0036,0.004 -0.00854,0.004 h -0.016627 q -0.00494,0 -0.00854,-0.004 -0.0036,-0.004 -0.0036,-0.009 v -0.20942 q 0,-0.005 0.0036,-0.009 0.0036,-0.004 0.00854,-0.004 h 0.016627 q 0.00494,0 0.00854,0.004 0.0036,0.004 0.0036,0.009 z"
         id="path13756" />
      <path
         d="m 3.8718581,295.7707 q 0,0.005 -0.0036,0.009 -0.0036,0.004 -0.00854,0.004 h -0.016627 q -0.00494,0 -0.00854,-0.004 -0.0036,-0.004 -0.0036,-0.009 v -0.2948 q 0,-0.005 0.0036,-0.009 0.0036,-0.004 0.00854,-0.004 h 0.016627 q 0.00494,0 0.00854,0.004 0.0036,0.004 0.0036,0.009 v 0.0139 q 0.022919,-0.0306 0.069655,-0.0306 0.027862,0 0.050331,0.013 0.022919,0.013 0.0364,0.0373 0.013931,0.0243 0.015279,0.0566 4.494e-4,0.004 4.494e-4,0.0144 0,0.0103 -4.494e-4,0.0148 -0.00135,0.0324 -0.015279,0.0566 -0.013482,0.0238 -0.035951,0.0369 -0.022469,0.013 -0.050781,0.013 -0.025166,0 -0.042692,-0.009 -0.017077,-0.009 -0.026963,-0.022 z m 0,-0.17391 q 0.00135,0.0315 0.018874,0.049 0.017526,0.0175 0.046287,0.0175 0.02921,0 0.046287,-0.0189 0.017526,-0.0189 0.019324,-0.0512 4.494e-4,-0.004 4.494e-4,-0.0126 0,-0.008 -4.494e-4,-0.0126 -0.0018,-0.0324 -0.019324,-0.0512 -0.017077,-0.0189 -0.046287,-0.0189 -0.027862,0 -0.045838,0.0175 -0.017975,0.0171 -0.019324,0.0458 l -4.494e-4,0.0175 z"
         id="path13758" />
      <path
         d="m 4.3019224,295.55949 q 8.987e-4,0.01 8.987e-4,0.0216 0,0.0108 -8.987e-4,0.0207 -0.00404,0.0458 -0.031907,0.0733 -0.027413,0.027 -0.074598,0.027 -0.047186,0 -0.075048,-0.027 -0.027413,-0.0274 -0.031457,-0.0733 -4.494e-4,-0.005 -4.494e-4,-0.0207 0,-0.0166 4.494e-4,-0.0216 0.0036,-0.0458 0.031457,-0.0728 0.027862,-0.0274 0.075048,-0.0274 0.047186,0 0.075048,0.0274 0.027862,0.027 0.031457,0.0728 z m -0.040894,0.002 q -0.0027,-0.0288 -0.019324,-0.0463 -0.016178,-0.0175 -0.046287,-0.0175 -0.030109,0 -0.046736,0.0175 -0.016178,0.0175 -0.018874,0.0463 -4.494e-4,0.005 -4.494e-4,0.0193 0,0.0135 4.494e-4,0.0184 0.0027,0.0288 0.018874,0.0463 0.016627,0.0175 0.046736,0.0175 0.030109,0 0.046287,-0.0175 0.016627,-0.0175 0.019324,-0.0463 8.987e-4,-0.01 8.987e-4,-0.0184 0,-0.009 -8.987e-4,-0.0193 z"
         id="path13760" />
      <path
         d="m 4.4776329,295.46377 q 0.00494,0 0.00854,0.004 0.0036,0.004 0.0036,0.009 v 0.0144 q 0,0.005 -0.0036,0.009 -0.0036,0.004 -0.00854,0.004 h -0.026065 q -0.025166,0 -0.038647,0.0135 -0.013032,0.013 -0.013032,0.0382 v 0.13123 q 0,0.005 -0.0036,0.009 -0.0036,0.004 -0.00854,0.004 h -0.016627 q -0.00494,0 -0.00854,-0.004 -0.0036,-0.004 -0.0036,-0.009 v -0.20942 q 0,-0.005 0.0036,-0.009 0.0036,-0.004 0.00854,-0.004 h 0.016627 q 0.00494,0 0.00854,0.004 0.0036,0.004 0.0036,0.009 v 0.0139 q 0.00899,-0.0135 0.021571,-0.0198 0.012583,-0.006 0.032805,-0.006 z"
         id="path13762" />
      <path
         d="m 4.6641291,295.5496 v -0.006 q 0,-0.022 -0.01483,-0.0337 -0.01438,-0.0121 -0.037749,-0.0121 -0.017975,0 -0.028311,0.006 -0.00989,0.006 -0.018874,0.018 -0.0027,0.004 -0.00584,0.005 -0.00315,0.001 -0.00854,0.001 H 4.536503 q -0.00494,0 -0.00899,-0.004 -0.0036,-0.004 -0.00315,-0.009 0.00135,-0.0135 0.013032,-0.0265 0.012134,-0.0135 0.031907,-0.022 0.019773,-0.009 0.042242,-0.009 0.041793,0 0.067408,0.0234 0.026065,0.0234 0.026065,0.0656 v 0.13707 q 0,0.005 -0.0036,0.009 -0.0036,0.004 -0.00854,0.004 h -0.016627 q -0.00494,0 -0.00854,-0.004 -0.0036,-0.004 -0.0036,-0.009 v -0.0184 q -0.00719,0.0162 -0.030558,0.0256 -0.023368,0.009 -0.046736,0.009 -0.022919,0 -0.040894,-0.008 -0.017976,-0.009 -0.027862,-0.0229 -0.00944,-0.0144 -0.00944,-0.0324 0,-0.0337 0.025166,-0.0526 0.025166,-0.0193 0.066959,-0.0261 z m 0,0.036 -0.053028,0.009 q -0.02921,0.004 -0.045388,0.0148 -0.016178,0.01 -0.016178,0.0252 0,0.0112 0.010336,0.0202 0.010336,0.009 0.031457,0.009 0.032356,0 0.052578,-0.0184 0.020222,-0.0184 0.020222,-0.0481 z"
         id="path13764" />
      <path
         d="m 4.8892723,295.46377 q 0.00494,0 0.00854,0.004 0.0036,0.004 0.0036,0.009 v 0.0144 q 0,0.005 -0.0036,0.009 -0.0036,0.004 -0.00854,0.004 h -0.026065 q -0.025166,0 -0.038647,0.0135 -0.013032,0.013 -0.013032,0.0382 v 0.13123 q 0,0.005 -0.0036,0.009 -0.0036,0.004 -0.00854,0.004 h -0.016627 q -0.00494,0 -0.00854,-0.004 -0.0036,-0.004 -0.0036,-0.009 v -0.20942 q 0,-0.005 0.0036,-0.009 0.0036,-0.004 0.00854,-0.004 h 0.016627 q 0.00494,0 0.00854,0.004 0.0036,0.004 0.0036,0.009 v 0.0139 q 0.00899,-0.0135 0.021571,-0.0198 0.012583,-0.006 0.032805,-0.006 z"
         id="path13766" />
      <path
         d="m 4.9701624,295.4759 v 0.11729 q 0,0.0306 0.019324,0.0512 0.017077,0.0189 0.046287,0.0189 0.028761,0 0.046287,-0.018 0.015729,-0.0157 0.018874,-0.0485 4.494e-4,-0.005 4.494e-4,-0.0162 l -4.494e-4,-0.0908 v -0.0139 q 0,-0.005 0.0036,-0.009 0.0036,-0.004 0.00854,-0.004 h 0.016627 q 0.00494,0 0.00854,0.004 0.0036,0.004 0.0036,0.009 v 0.2184 q 0,0.0476 -0.026963,0.0746 -0.026963,0.0274 -0.079092,0.0274 -0.033704,0 -0.056623,-0.0103 -0.022919,-0.0103 -0.033704,-0.0256 -0.010785,-0.0144 -0.012134,-0.031 -4.494e-4,-0.005 0.00315,-0.009 0.00404,-0.004 0.00899,-0.004 h 0.013482 q 0.00539,0 0.00854,0.003 0.00315,0.003 0.00629,0.009 0.00449,0.0103 0.017077,0.0193 0.012583,0.009 0.040445,0.009 0.069655,0 0.069655,-0.058 v -0.0283 q -0.022919,0.0306 -0.069655,0.0306 -0.027862,0 -0.050781,-0.013 -0.026514,-0.0153 -0.035951,-0.0373 -0.015279,-0.0333 -0.015279,-0.0562 v -0.11954 q 0,-0.005 0.0036,-0.009 0.00449,-0.004 0.00854,-0.004 h 0.016627 q 0.00494,0 0.00854,0.004 0.0036,0.004 0.0036,0.009 z"
         id="path13768" />
    </g>
    <g
       aria-label="Common Libraries"
       id="text2053"
       style="font-size:0.209701px;line-height:1.25;font-family:Contemporary;-inkscape-font-specification:Contemporary;stroke-width:0.264583">
      <path
         d="m 1.7438528,295.96515 q 6.291e-4,0.0178 0.010695,0.0285 0.010275,0.0105 0.028519,0.0105 0.018454,0 0.027261,-0.008 0.00881,-0.008 0.011743,-0.0206 4.194e-4,-0.002 0.00189,-0.003 0.00168,-0.001 0.00356,-0.001 h 0.00965 q 0.00189,0 0.00315,0.001 0.00147,0.001 0.00147,0.003 -4.194e-4,0.0103 -0.00671,0.0214 -0.00629,0.0109 -0.019502,0.0185 -0.013001,0.008 -0.032504,0.008 -0.017615,0 -0.030826,-0.007 -0.013211,-0.007 -0.020551,-0.0201 -0.00713,-0.013 -0.00776,-0.0294 -2.097e-4,-0.006 -2.097e-4,-0.0187 0,-0.0124 2.097e-4,-0.0187 6.291e-4,-0.0164 0.00776,-0.0292 0.00734,-0.013 0.020551,-0.0203 0.013211,-0.007 0.030826,-0.007 0.019502,0 0.032504,0.008 0.013211,0.008 0.019502,0.0187 0.00629,0.0109 0.00671,0.0212 0,0.002 -0.00147,0.003 -0.00126,0.001 -0.00315,0.001 h -0.00965 q -0.00189,0 -0.00356,-0.001 -0.00147,-0.001 -0.00189,-0.003 -0.00294,-0.0126 -0.011743,-0.0206 -0.00881,-0.008 -0.027261,-0.008 -0.018244,0 -0.028519,0.0107 -0.010066,0.0105 -0.010695,0.0283 -2.097e-4,0.006 -2.097e-4,0.0176 0,0.0113 2.097e-4,0.0176 z"
         id="path13771" />
      <path
         d="m 1.9613127,295.95656 q 4.194e-4,0.005 4.194e-4,0.0101 0,0.005 -4.194e-4,0.01 -0.00189,0.0214 -0.014889,0.0342 -0.012792,0.0126 -0.03481,0.0126 -0.022019,0 -0.03502,-0.0126 -0.012792,-0.0128 -0.014679,-0.0342 -2.097e-4,-0.002 -2.097e-4,-0.01 0,-0.008 2.097e-4,-0.0101 0.00168,-0.0214 0.014679,-0.034 0.013001,-0.0128 0.03502,-0.0128 0.022019,0 0.03502,0.0128 0.013002,0.0126 0.014679,0.034 z m -0.019083,0.001 q -0.00126,-0.0134 -0.00902,-0.0216 -0.00755,-0.008 -0.021599,-0.008 -0.01405,0 -0.021809,0.008 -0.00755,0.008 -0.00881,0.0216 -2.097e-4,0.003 -2.097e-4,0.009 0,0.006 2.097e-4,0.009 0.00126,0.0134 0.00881,0.0216 0.00776,0.008 0.021809,0.008 0.01405,0 0.021599,-0.008 0.00776,-0.008 0.00902,-0.0216 4.194e-4,-0.005 4.194e-4,-0.009 0,-0.004 -4.194e-4,-0.009 z"
         id="path13773" />
      <path
         d="m 2.0070274,295.92405 q 0.00503,-0.007 0.011324,-0.0103 0.00629,-0.004 0.016776,-0.004 0.024535,0 0.034391,0.0183 0.00608,-0.009 0.01384,-0.0134 0.00776,-0.005 0.020341,-0.005 0.020551,0 0.030407,0.0124 0.010066,0.0124 0.010066,0.035 v 0.0581 q 0,0.002 -0.00168,0.004 -0.00168,0.002 -0.00398,0.002 h -0.00776 q -0.00231,0 -0.00398,-0.002 -0.00168,-0.002 -0.00168,-0.004 v -0.056 q 0,-0.0315 -0.024745,-0.0315 -0.011324,0 -0.018034,0.008 -0.00671,0.008 -0.00671,0.0224 v 0.0574 q 0,0.002 -0.00168,0.004 -0.00168,0.002 -0.00398,0.002 h -0.00776 q -0.00231,0 -0.00398,-0.002 -0.00168,-0.002 -0.00168,-0.004 v -0.056 q 0,-0.0315 -0.024745,-0.0315 -0.011324,0 -0.018034,0.008 -0.00671,0.008 -0.00671,0.0224 v 0.0574 q 0,0.002 -0.00168,0.004 -0.00168,0.002 -0.00398,0.002 h -0.00776 q -0.00231,0 -0.00398,-0.002 -0.00168,-0.002 -0.00168,-0.004 v -0.0977 q 0,-0.002 0.00168,-0.004 0.00168,-0.002 0.00398,-0.002 h 0.00776 q 0.00231,0 0.00398,0.002 0.00168,0.002 0.00168,0.004 z"
         id="path13775" />
      <path
         d="m 2.1936612,295.92405 q 0.00503,-0.007 0.011324,-0.0103 0.00629,-0.004 0.016776,-0.004 0.024535,0 0.034391,0.0183 0.00608,-0.009 0.01384,-0.0134 0.00776,-0.005 0.020341,-0.005 0.020551,0 0.030407,0.0124 0.010066,0.0124 0.010066,0.035 v 0.0581 q 0,0.002 -0.00168,0.004 -0.00168,0.002 -0.00398,0.002 h -0.00776 q -0.00231,0 -0.00398,-0.002 -0.00168,-0.002 -0.00168,-0.004 v -0.056 q 0,-0.0315 -0.024745,-0.0315 -0.011324,0 -0.018034,0.008 -0.00671,0.008 -0.00671,0.0224 v 0.0574 q 0,0.002 -0.00168,0.004 -0.00168,0.002 -0.00398,0.002 h -0.00776 q -0.00231,0 -0.00398,-0.002 -0.00168,-0.002 -0.00168,-0.004 v -0.056 q 0,-0.0315 -0.024745,-0.0315 -0.011324,0 -0.018034,0.008 -0.00671,0.008 -0.00671,0.0224 v 0.0574 q 0,0.002 -0.00168,0.004 -0.00168,0.002 -0.00398,0.002 h -0.00776 q -0.00231,0 -0.00398,-0.002 -0.00168,-0.002 -0.00168,-0.004 v -0.0977 q 0,-0.002 0.00168,-0.004 0.00168,-0.002 0.00398,-0.002 h 0.00776 q 0.00231,0 0.00398,0.002 0.00168,0.002 0.00168,0.004 z"
         id="path13777" />
      <path
         d="m 2.4555776,295.95656 q 4.194e-4,0.005 4.194e-4,0.0101 0,0.005 -4.194e-4,0.01 -0.00189,0.0214 -0.014889,0.0342 -0.012792,0.0126 -0.03481,0.0126 -0.022019,0 -0.03502,-0.0126 -0.012792,-0.0128 -0.014679,-0.0342 -2.097e-4,-0.002 -2.097e-4,-0.01 0,-0.008 2.097e-4,-0.0101 0.00168,-0.0214 0.014679,-0.034 0.013002,-0.0128 0.03502,-0.0128 0.022019,0 0.03502,0.0128 0.013001,0.0126 0.014679,0.034 z m -0.019083,0.001 q -0.00126,-0.0134 -0.00902,-0.0216 -0.00755,-0.008 -0.021599,-0.008 -0.01405,0 -0.021809,0.008 -0.00755,0.008 -0.00881,0.0216 -2.097e-4,0.003 -2.097e-4,0.009 0,0.006 2.097e-4,0.009 0.00126,0.0134 0.00881,0.0216 0.00776,0.008 0.021809,0.008 0.01405,0 0.021599,-0.008 0.00776,-0.008 0.00902,-0.0216 4.195e-4,-0.005 4.195e-4,-0.009 0,-0.004 -4.195e-4,-0.009 z"
         id="path13779" />
      <path
         d="m 2.5790914,296.01527 q 0,0.002 -0.00168,0.004 -0.00168,0.002 -0.00398,0.002 h -0.00776 q -0.00231,0 -0.00398,-0.002 -0.00168,-0.002 -0.00168,-0.004 v -0.0554 q 0,-0.0157 -0.00776,-0.0239 -0.00776,-0.008 -0.021599,-0.008 -0.013631,0 -0.021599,0.008 -0.00776,0.008 -0.00776,0.0239 v 0.0554 q 0,0.002 -0.00168,0.004 -0.00168,0.002 -0.00398,0.002 h -0.00776 q -0.00231,0 -0.00398,-0.002 -0.00168,-0.002 -0.00168,-0.004 v -0.0977 q 0,-0.002 0.00168,-0.004 0.00168,-0.002 0.00398,-0.002 h 0.00776 q 0.00231,0 0.00398,0.002 0.00168,0.002 0.00168,0.004 v 0.007 q 0.00461,-0.006 0.012582,-0.0101 0.00818,-0.004 0.019922,-0.004 0.013211,0 0.023486,0.006 0.010275,0.006 0.015937,0.0163 0.00587,0.0105 0.00587,0.025 z"
         id="path13781" />
      <path
         d="m 2.753982,296.00206 q 0.00231,0 0.00398,0.002 0.00168,0.002 0.00168,0.004 v 0.008 q 0,0.002 -0.00168,0.004 -0.00168,0.002 -0.00398,0.002 h -0.085348 q -0.00231,0 -0.00398,-0.002 -0.00168,-0.002 -0.00168,-0.004 v -0.13546 q 0,-0.002 0.00168,-0.004 0.00168,-0.002 0.00398,-0.002 h 0.0086 q 0.00231,0 0.00398,0.002 0.00168,0.002 0.00168,0.004 v 0.12225 z"
         id="path13783" />
      <path
         d="m 2.8005356,295.89155 q 0,0.002 -0.00168,0.004 -0.00168,0.002 -0.00398,0.002 h -0.011953 q -0.00231,0 -0.00398,-0.002 -0.00168,-0.002 -0.00168,-0.004 v -0.012 q 0,-0.002 0.00168,-0.004 0.00168,-0.002 0.00398,-0.002 h 0.011953 q 0.00231,0 0.00398,0.002 0.00168,0.002 0.00168,0.004 z m -0.0021,0.12372 q 0,0.002 -0.00168,0.004 -0.00168,0.002 -0.00398,0.002 h -0.00776 q -0.00231,0 -0.00398,-0.002 -0.00168,-0.002 -0.00168,-0.004 v -0.0977 q 0,-0.002 0.00168,-0.004 0.00168,-0.002 0.00398,-0.002 h 0.00776 q 0.00231,0 0.00398,0.002 0.00168,0.002 0.00168,0.004 z"
         id="path13785" />
      <path
         d="m 2.9290822,295.95949 q 2.097e-4,0.002 2.097e-4,0.007 0,0.005 -2.097e-4,0.007 -6.291e-4,0.0151 -0.00713,0.0264 -0.00629,0.0113 -0.016986,0.0174 -0.010485,0.006 -0.023486,0.006 -0.021809,0 -0.032504,-0.0143 v 0.006 q 0,0.002 -0.00168,0.004 -0.00168,0.002 -0.00398,0.002 h -0.00776 q -0.00231,0 -0.00398,-0.002 -0.00168,-0.002 -0.00168,-0.004 v -0.13756 q 0,-0.002 0.00168,-0.004 0.00168,-0.002 0.00398,-0.002 h 0.00776 q 0.00231,0 0.00398,0.002 0.00168,0.002 0.00168,0.004 v 0.0463 q 0.00461,-0.006 0.012582,-0.0101 0.00818,-0.004 0.019922,-0.004 0.013211,0 0.023696,0.006 0.010485,0.006 0.016776,0.0174 0.0065,0.0111 0.00713,0.0262 z m -0.049699,0.0455 q 0.013631,0 0.021599,-0.009 0.00797,-0.009 0.00902,-0.0241 2.097e-4,-0.002 2.097e-4,-0.006 0,-0.0178 -0.00818,-0.0281 -0.00797,-0.0105 -0.022648,-0.0105 -0.013211,0 -0.02118,0.008 -0.00797,0.008 -0.00923,0.0229 -2.097e-4,0.002 -2.097e-4,0.008 0,0.006 2.097e-4,0.008 0.00105,0.0136 0.00923,0.0216 0.00839,0.008 0.02118,0.008 z"
         id="path13787" />
      <path
         d="m 3.0106558,295.91189 q 0.00231,0 0.00398,0.002 0.00168,0.002 0.00168,0.004 v 0.007 q 0,0.002 -0.00168,0.004 -0.00168,0.002 -0.00398,0.002 h -0.012163 q -0.011743,0 -0.018034,0.006 -0.00608,0.006 -0.00608,0.0178 v 0.0612 q 0,0.002 -0.00168,0.004 -0.00168,0.002 -0.00398,0.002 h -0.00776 q -0.00231,0 -0.00398,-0.002 -0.00168,-0.002 -0.00168,-0.004 v -0.0977 q 0,-0.002 0.00168,-0.004 0.00168,-0.002 0.00398,-0.002 h 0.00776 q 0.00231,0 0.00398,0.002 0.00168,0.002 0.00168,0.004 v 0.007 q 0.00419,-0.006 0.010066,-0.009 0.00587,-0.003 0.015308,-0.003 z"
         id="path13789" />
      <path
         d="m 3.0976819,295.95194 v -0.003 q 0,-0.0103 -0.00692,-0.0157 -0.00671,-0.006 -0.017615,-0.006 -0.00839,0 -0.013211,0.003 -0.00461,0.003 -0.00881,0.008 -0.00126,0.002 -0.00273,0.002 -0.00147,6.3e-4 -0.00398,6.3e-4 h -0.00629 q -0.00231,0 -0.00419,-0.002 -0.00168,-0.002 -0.00147,-0.004 6.291e-4,-0.006 0.00608,-0.0124 0.00566,-0.006 0.014889,-0.0103 0.00923,-0.004 0.019712,-0.004 0.019502,0 0.031455,0.0109 0.012163,0.0109 0.012163,0.0306 v 0.064 q 0,0.002 -0.00168,0.004 -0.00168,0.002 -0.00398,0.002 h -0.00776 q -0.00231,0 -0.00398,-0.002 -0.00168,-0.002 -0.00168,-0.004 v -0.009 q -0.00336,0.008 -0.01426,0.0119 -0.010904,0.004 -0.021809,0.004 -0.010695,0 -0.019083,-0.004 -0.00839,-0.004 -0.013001,-0.0107 -0.0044,-0.007 -0.0044,-0.0151 0,-0.0157 0.011743,-0.0245 0.011743,-0.009 0.031245,-0.0122 z m 0,0.0168 -0.024745,0.004 q -0.013631,0.002 -0.02118,0.007 -0.00755,0.005 -0.00755,0.0118 0,0.005 0.00482,0.009 0.00482,0.004 0.014679,0.004 0.015099,0 0.024535,-0.009 0.00944,-0.009 0.00944,-0.0224 z"
         id="path13791" />
      <path
         d="m 3.2027421,295.91189 q 0.00231,0 0.00398,0.002 0.00168,0.002 0.00168,0.004 v 0.007 q 0,0.002 -0.00168,0.004 -0.00168,0.002 -0.00398,0.002 h -0.012163 q -0.011743,0 -0.018034,0.006 -0.00608,0.006 -0.00608,0.0178 v 0.0612 q 0,0.002 -0.00168,0.004 -0.00168,0.002 -0.00398,0.002 h -0.00776 q -0.00231,0 -0.00398,-0.002 -0.00168,-0.002 -0.00168,-0.004 v -0.0977 q 0,-0.002 0.00168,-0.004 0.00168,-0.002 0.00398,-0.002 h 0.00776 q 0.00231,0 0.00398,0.002 0.00168,0.002 0.00168,0.004 v 0.007 q 0.00419,-0.006 0.010066,-0.009 0.00587,-0.003 0.015308,-0.003 z"
         id="path13793" />
      <path
         d="m 3.2478278,295.89155 q 0,0.002 -0.00168,0.004 -0.00168,0.002 -0.00398,0.002 h -0.011953 q -0.00231,0 -0.00398,-0.002 -0.00168,-0.002 -0.00168,-0.004 v -0.012 q 0,-0.002 0.00168,-0.004 0.00168,-0.002 0.00398,-0.002 h 0.011953 q 0.00231,0 0.00398,0.002 0.00168,0.002 0.00168,0.004 z m -0.0021,0.12372 q 0,0.002 -0.00168,0.004 -0.00168,0.002 -0.00398,0.002 H 3.23231 q -0.00231,0 -0.00398,-0.002 -0.00168,-0.002 -0.00168,-0.004 v -0.0977 q 0,-0.002 0.00168,-0.004 0.00168,-0.002 0.00398,-0.002 h 0.00776 q 0.00231,0 0.00398,0.002 0.00168,0.002 0.00168,0.004 z"
         id="path13795" />
      <path
         d="m 3.3201744,295.90979 q 0.022438,0 0.035439,0.0143 0.013002,0.0143 0.013002,0.0388 v 0.006 q 0,0.002 -0.00168,0.004 -0.00168,0.002 -0.00398,0.002 h -0.072137 v 0.001 q 4.194e-4,0.0138 0.00839,0.0218 0.00818,0.008 0.02097,0.008 0.010485,0 0.016147,-0.003 0.00587,-0.003 0.010485,-0.008 0.00168,-0.002 0.00294,-0.002 0.00147,-6.3e-4 0.00377,-6.3e-4 h 0.00629 q 0.00252,0 0.00419,0.002 0.00168,0.002 0.00147,0.004 -8.388e-4,0.006 -0.00629,0.0117 -0.00524,0.006 -0.015308,0.0101 -0.00986,0.004 -0.023696,0.004 -0.013421,0 -0.023906,-0.006 -0.010485,-0.006 -0.016776,-0.0172 -0.00608,-0.0109 -0.00734,-0.0245 -4.194e-4,-0.006 -4.194e-4,-0.01 0,-0.003 4.194e-4,-0.01 0.00126,-0.013 0.00734,-0.0235 0.00629,-0.0105 0.016566,-0.0166 0.010485,-0.006 0.024116,-0.006 z m 0.029568,0.0468 v -6.3e-4 q 0,-0.0128 -0.00818,-0.0203 -0.00797,-0.008 -0.02139,-0.008 -0.012163,0 -0.02076,0.008 -0.00839,0.008 -0.0086,0.0203 v 6.3e-4 z"
         id="path13797" />
      <path
         d="m 3.4202016,295.97249 q -0.030616,-0.007 -0.030616,-0.0312 0,-0.009 0.00461,-0.0157 0.00461,-0.007 0.013631,-0.0113 0.00923,-0.004 0.022438,-0.004 0.013001,0 0.022438,0.004 0.00944,0.004 0.01426,0.009 0.00503,0.006 0.00503,0.0109 0,0.002 -0.00168,0.004 -0.00168,0.001 -0.00398,0.001 h -0.00692 q -0.00398,0 -0.00629,-0.003 -0.0065,-0.008 -0.022857,-0.008 -0.00965,0 -0.015728,0.004 -0.00587,0.004 -0.00587,0.01 0,0.005 0.00294,0.008 0.00294,0.003 0.00881,0.004 0.00587,0.002 0.02076,0.005 0.018454,0.004 0.026213,0.0122 0.00776,0.008 0.00776,0.0199 0,0.009 -0.00545,0.0159 -0.00524,0.007 -0.015308,0.0119 -0.00986,0.004 -0.023067,0.004 -0.013002,0 -0.023067,-0.004 -0.00986,-0.004 -0.015308,-0.0101 -0.00545,-0.006 -0.00545,-0.0111 0,-0.002 0.00168,-0.004 0.00168,-0.002 0.00398,-0.002 h 0.00755 q 0.00189,0 0.00336,4.1e-4 0.00147,4.2e-4 0.00273,0.002 0.00692,0.01 0.024535,0.01 0.00986,0 0.017195,-0.004 0.00755,-0.004 0.00755,-0.0103 0,-0.005 -0.00377,-0.008 -0.00356,-0.003 -0.010485,-0.005 -0.00692,-0.002 -0.021599,-0.005 z"
         id="path13799" />
    </g>
    <path
       sodipodi:nodetypes="cccccc"
       inkscape:connector-curvature="0"
       id="path2507-4-6"
       d="m 0.31230552,294.28794 v 2.07221 l 0.21686115,-0.21623 0.21686113,0.21623 v -2.07221 z"
       style="fill:none;fill-opacity:1;stroke:#000000;stroke-width:0.0269875;stroke-linecap:round;stroke-linejoin:round;stroke-miterlimit:4;stroke-dasharray:0.0269875, 0.053975;stroke-dashoffset:0;stroke-opacity:1" />
  </g>
</svg>
